<?xml version="1.0" standalone="no"?>
<!DOCTYPE svg PUBLIC "-//W3C//DTD SVG 20010904//EN"
 "http://www.w3.org/TR/2001/REC-SVG-20010904/DTD/svg10.dtd">
<svg version="1.0" xmlns="http://www.w3.org/2000/svg"
 width="1500.000000pt" height="1126.000000pt" viewBox="0 0 1500.000000 1126.000000"
 preserveAspectRatio="xMidYMid meet">
<metadata>
Created by potrace 1.16, written by Peter Selinger 2001-2019
</metadata>
<g transform="translate(0.000000,1126.000000) scale(0.100000,-0.100000)"
fill="#000000" stroke="none">
<path d="M7885 10008 c-3 -18 -14 -89 -25 -158 -31 -191 -25 -179 -63 -131
-64 81 -190 172 -309 225 l-54 24 -89 -22 -90 -21 115 -5 c127 -6 135 -9 255
-90 117 -80 118 -81 125 -219 3 -66 8 -122 12 -126 3 -3 21 7 39 23 28 25 35
41 45 98 19 108 64 365 70 402 4 24 1 32 -10 32 -9 0 -17 -13 -21 -32z"/>
<path d="M8552 9811 c-70 -157 -114 -325 -116 -441 -1 -74 2 -89 22 -117 28
-39 23 -68 -21 -118 -43 -48 -84 -55 -124 -21 -58 49 -92 175 -94 359 -1 71
-2 76 -10 42 -13 -67 -10 -226 6 -290 9 -33 28 -78 44 -100 21 -31 32 -65 46
-147 21 -124 15 -149 -38 -174 l-32 -15 35 5 c44 7 85 54 107 122 12 39 22 53
44 61 37 14 64 60 78 134 11 55 13 58 32 48 15 -8 19 -17 15 -37 -22 -116 -14
-239 25 -355 22 -68 32 -82 47 -73 6 4 1 32 -14 74 -29 86 -48 239 -37 312 8
52 10 54 39 56 38 2 86 27 118 61 l25 27 9 -24 c7 -20 4 -32 -13 -55 -43 -58
-56 -130 -34 -196 26 -75 72 -88 159 -44 73 37 97 34 111 -15 10 -33 9 -47 -4
-80 l-15 -40 24 0 c33 0 47 38 42 117 -4 70 -30 116 -68 121 -13 2 -52 -9 -88
-24 -48 -20 -69 -25 -81 -17 -23 14 -35 55 -27 88 9 36 68 95 94 95 26 0 52
26 52 52 0 19 -4 20 -55 14 l-54 -6 -12 39 c-9 29 -9 47 0 72 6 17 11 43 11
55 0 29 31 32 86 9 48 -20 50 -11 35 149 -20 224 -19 223 -74 64 -84 -247
-125 -316 -213 -358 -56 -28 -100 -21 -140 21 -28 29 -29 34 -27 112 1 100 32
243 83 391 21 61 37 112 36 114 -2 1 -17 -29 -34 -67z"/>
<path d="M9690 9848 c-46 -75 -15 -249 46 -264 34 -9 50 0 70 38 22 41 22 139
2 188 -33 77 -84 93 -118 38z"/>
<path d="M8980 9866 c0 -2 7 -20 15 -40 22 -51 32 -109 50 -287 25 -246 43
-309 101 -352 l24 -18 -25 37 c-33 48 -43 87 -56 219 -6 61 -17 143 -25 184
-7 41 -12 76 -11 78 10 10 183 -44 248 -78 142 -74 242 -198 300 -370 l29 -87
-29 -69 c-15 -38 -35 -81 -43 -97 -15 -29 -15 -29 -20 37 -7 79 -32 124 -86
154 -62 36 -107 38 -187 8 -76 -28 -79 -27 65 -9 85 10 163 -51 192 -150 14
-50 14 -147 0 -198 -10 -37 -9 -38 15 -38 14 0 39 11 55 25 16 14 34 23 38 20
5 -3 27 32 48 77 79 165 169 437 242 732 34 134 40 170 29 176 -10 7 -24 -35
-60 -178 -58 -229 -105 -383 -168 -555 l-48 -132 -6 170 c-6 196 -20 263 -79
385 -59 123 -153 215 -280 274 -95 45 -236 86 -295 86 -18 0 -33 -2 -33 -4z"/>
<path d="M6585 9698 c-49 -22 -92 -41 -93 -43 -2 -2 33 -22 78 -45 45 -23 84
-39 87 -36 5 5 25 157 21 161 -2 1 -43 -16 -93 -37z"/>
<path d="M10925 9029 c-98 -78 -310 -201 -399 -232 l-40 -14 60 -11 c200 -40
382 -223 528 -533 50 -105 109 -279 104 -306 -2 -12 -56 -45 -153 -94 -83 -42
-157 -78 -165 -81 -11 -3 0 -23 38 -71 108 -135 201 -199 291 -200 62 0 206
51 365 130 135 67 186 98 186 114 0 17 -20 9 -100 -37 -80 -46 -295 -144 -316
-144 -9 0 -9 11 -2 43 17 73 3 280 -27 382 -69 239 -238 487 -454 666 -52 43
-127 95 -167 116 l-73 38 27 14 c160 80 379 231 367 252 -9 14 -16 11 -70 -32z"/>
<path d="M6890 8924 c-113 -22 -201 -70 -235 -128 -35 -59 -32 -100 11 -172
48 -80 74 -104 33 -30 l-33 59 25 20 c40 32 195 106 256 122 147 38 257 -4
302 -115 20 -50 11 9 -9 64 -26 69 -88 139 -142 161 -43 17 -161 28 -208 19z"/>
<path d="M6161 8740 c-2 -92 67 -269 155 -402 89 -133 295 -328 408 -385 37
-18 34 -16 -69 69 -105 87 -218 204 -291 304 -76 102 -159 267 -184 364 -10
41 -19 64 -19 50z"/>
<path d="M8452 8583 c-112 -143 -176 -350 -208 -678 -14 -138 -11 -279 5 -289
3 -2 5 24 3 59 -6 113 55 500 104 665 24 79 84 207 120 258 27 37 8 25 -24
-15z"/>
<path d="M7290 8368 c0 -12 16 -17 68 -20 91 -7 167 -31 243 -77 l64 -39 6 26
c3 15 1 33 -6 39 -6 7 -51 27 -99 44 -107 37 -276 54 -276 27z"/>
<path d="M5970 8368 c0 -15 44 -125 68 -168 52 -94 137 -193 222 -261 44 -35
182 -119 196 -119 3 0 -38 33 -93 74 -152 114 -269 249 -355 410 -21 39 -38
68 -38 64z"/>
<path d="M9165 8330 c-81 -6 -84 -6 -29 -8 93 -3 344 -81 475 -147 59 -30 128
-90 140 -122 13 -35 -5 -68 -50 -94 -64 -36 -39 -35 29 2 107 57 131 108 91
194 -25 54 -64 89 -134 120 -104 46 -330 70 -522 55z"/>
<path d="M7245 8143 c-11 -3 -51 -19 -88 -36 -52 -23 -66 -34 -61 -46 4 -9 9
-26 12 -39 2 -13 7 -21 11 -20 41 21 122 58 144 67 24 9 28 16 25 43 -3 33
-10 38 -43 31z"/>
<path d="M7355 7901 c-38 -16 -96 -40 -127 -54 -31 -15 -73 -27 -92 -29 -37
-2 -70 18 -62 38 4 9 -4 9 -31 -2 -54 -23 -112 -9 -256 64 -4 2 -5 -7 -2 -21
8 -32 -17 -92 -46 -107 -18 -10 -19 -14 -8 -21 8 -4 16 -24 17 -45 6 -88 62
-210 138 -300 134 -159 387 -241 582 -189 69 18 162 61 197 90 11 9 0 5 -25
-9 -118 -65 -266 -88 -395 -61 -247 51 -428 235 -471 477 -6 34 -3 41 32 73
l38 36 38 -16 c21 -8 49 -15 62 -15 14 0 30 -10 40 -25 10 -14 31 -35 49 -45
58 -36 131 -23 292 50 39 17 93 34 122 37 48 5 54 3 82 -25 61 -60 28 -148
-80 -214 -33 -21 -125 -48 -161 -48 -27 0 -28 -2 -28 -45 0 -31 5 -47 15 -51
24 -10 156 24 204 52 l45 25 53 -53 53 -52 30 29 30 29 -50 51 -51 51 19 25
c35 44 62 108 62 145 0 58 -35 119 -87 153 -62 41 -130 42 -228 2z"/>
<path d="M8610 7777 c0 -9 23 -18 63 -25 195 -36 372 -204 423 -403 76 -296
-100 -595 -396 -674 -77 -21 -211 -19 -292 4 -187 51 -348 226 -388 418 -30
144 9 325 95 440 30 39 40 61 34 68 -26 25 -124 -136 -154 -250 -50 -194 18
-472 149 -608 137 -144 350 -214 538 -178 169 33 340 162 411 311 47 100 71
214 62 305 -7 78 -28 186 -44 228 -10 25 -9 27 14 27 14 0 25 4 25 9 0 20 -91
130 -140 170 -137 108 -400 212 -400 158z"/>
<path d="M3430 7769 c-74 -9 -128 -30 -197 -77 -79 -53 -185 -168 -216 -233
-36 -74 -54 -222 -37 -316 34 -200 196 -370 389 -412 270 -58 563 115 612 362
5 28 17 80 26 114 38 147 -5 293 -117 396 -61 56 -102 80 -225 128 -94 36
-159 47 -235 38z"/>
<path d="M12497 7665 c-85 -32 -202 -141 -240 -223 -17 -38 -22 -67 -22 -147
0 -88 3 -107 27 -157 35 -76 107 -151 177 -185 50 -25 67 -28 161 -28 98 0
110 2 170 32 111 55 171 127 196 239 36 160 31 226 -23 306 -47 71 -78 94
-189 139 -104 43 -184 50 -257 24z"/>
<path d="M8716 7601 c-26 -59 -27 -60 -57 -49 -17 6 -54 8 -84 6 -67 -6 -119
-43 -147 -106 -37 -83 -9 -149 112 -267 72 -70 90 -100 90 -150 0 -87 -103
-115 -196 -52 -42 27 -104 101 -116 137 -5 15 -78 -16 -78 -33 0 -21 54 -99
98 -141 l40 -38 -24 -55 c-14 -31 -24 -57 -22 -58 9 -7 48 -25 56 -25 4 0 18
25 31 54 21 52 24 54 47 45 38 -14 131 -11 163 5 43 23 86 78 101 129 20 73
-3 121 -112 233 -115 120 -127 150 -82 203 49 58 144 34 223 -55 22 -26 41
-50 41 -55 0 -4 18 0 40 8 22 9 40 19 40 24 0 12 -76 104 -105 127 l-26 21 31
60 30 60 -29 16 c-17 8 -32 15 -34 15 -2 0 -16 -27 -31 -59z"/>
<path d="M12469 6150 c-31 -18 -253 -67 -359 -79 -156 -18 -148 -15 -176 -74
-33 -72 -32 -76 19 -66 87 17 90 15 145 -63 65 -96 143 -253 176 -355 68 -218
75 -465 16 -668 -17 -60 -38 -117 -46 -126 -9 -10 -39 -20 -72 -24 -95 -11
-103 -15 -96 -39 4 -11 7 -22 8 -23 9 -11 583 51 746 80 l65 12 8 95 c10 129
6 136 -26 55 -47 -120 -55 -129 -128 -143 -106 -19 -380 -52 -436 -52 l-53 0
36 50 c82 115 124 286 124 509 0 309 -91 582 -253 758 -45 49 -58 40 106 72
134 27 248 62 244 75 -5 15 -28 18 -48 6z"/>
<path d="M4344 6099 c-125 -21 -273 -92 -394 -190 -137 -112 -164 -126 -243
-134 -189 -17 -341 -51 -426 -95 -200 -101 -329 -321 -343 -585 -3 -49 -3 -49
-46 -61 -84 -25 -150 -89 -189 -184 -46 -114 -26 -368 43 -562 28 -76 81 -189
116 -246 19 -31 23 -33 60 -27 22 4 70 4 107 0 62 -7 69 -10 111 -54 25 -25
61 -69 80 -96 41 -58 85 -90 152 -110 59 -17 95 -7 104 29 18 73 -68 323 -218
638 l-80 166 45 95 c145 306 361 465 667 492 80 8 344 -19 560 -56 168 -29
373 -49 428 -42 45 5 49 3 60 -22 12 -25 11 -26 -10 -18 -13 4 -48 8 -79 7
-71 0 -141 -42 -195 -115 -32 -43 -70 -136 -61 -146 2 -2 44 22 93 53 103 66
180 104 210 104 11 0 44 -12 72 -26 52 -26 64 -40 95 -115 l15 -36 -36 19
c-47 23 -134 23 -187 -1 -65 -29 -132 -121 -150 -206 -4 -21 5 -10 30 35 19
36 50 80 68 97 l32 33 -3 -61 c-3 -49 1 -70 23 -115 38 -77 83 -109 156 -109
47 0 62 4 84 25 41 38 55 73 55 138 0 46 4 63 20 77 74 67 136 216 125 300 -8
54 -44 137 -76 171 l-20 21 63 61 c77 74 121 144 161 259 29 82 31 97 32 228
0 129 -2 144 -25 188 -51 101 -168 176 -289 185 -110 7 -221 -30 -351 -118
l-56 -38 -32 39 c-42 49 -109 88 -181 105 -62 15 -101 16 -177 3z"/>
<path d="M10057 6029 c28 -49 177 -193 254 -245 43 -30 85 -70 114 -109 34
-47 53 -64 77 -69 48 -10 110 -6 143 8 l30 13 -46 -1 c-33 -1 -65 9 -122 37
-74 37 -152 104 -420 360 -48 45 -53 46 -30 6z"/>
<path d="M10757 5763 l1 -78 49 -13 c26 -6 86 -15 133 -18 l85 -6 30 68 c17
37 32 72 33 76 2 4 -36 8 -85 8 -76 1 -159 13 -228 35 -19 6 -20 2 -18 -72z"/>
<path d="M9860 5720 c35 -49 129 -140 202 -195 74 -56 139 -90 199 -105 33 -8
49 -19 62 -42 12 -20 22 -28 33 -24 9 3 24 6 35 6 23 0 99 74 99 97 0 14 -3
14 -22 -4 -100 -90 -241 -36 -505 195 -125 109 -132 114 -103 72z"/>
<path d="M11342 5521 c-67 -136 -154 -216 -227 -207 -37 4 -38 3 -21 -10 26
-19 90 -18 132 2 46 22 134 121 174 195 17 33 30 62 28 63 -6 6 -47 26 -50 25
-2 0 -18 -31 -36 -68z"/>
<path d="M10596 5478 c-2 -7 -17 -73 -32 -145 l-28 -133 -85 0 c-145 0 -243
-36 -337 -123 -94 -87 -141 -203 -132 -331 9 -146 113 -256 373 -395 243 -131
326 -192 368 -272 26 -49 28 -61 24 -127 -5 -88 -36 -140 -111 -186 -42 -27
-59 -31 -140 -34 -104 -5 -181 12 -283 60 -84 40 -202 134 -260 208 l-45 59
-32 -22 c-82 -57 -125 -93 -126 -104 0 -20 112 -148 181 -205 73 -62 141 -106
214 -139 28 -12 51 -23 53 -24 1 -1 -11 -67 -28 -147 -16 -80 -30 -152 -30
-160 0 -20 158 -67 169 -50 3 6 19 79 35 162 29 150 30 151 54 145 40 -10 215
-7 268 5 121 27 240 114 297 218 54 99 71 249 41 353 -42 145 -154 247 -421
385 -272 142 -355 204 -369 278 -17 94 25 182 110 225 40 21 67 26 146 29 88
4 105 1 191 -28 112 -38 269 -129 301 -174 7 -11 163 110 163 127 0 19 -133
115 -215 156 -41 21 -103 48 -137 61 -42 15 -63 28 -63 39 0 9 12 70 25 136
14 66 25 125 25 132 0 14 -18 20 -97 28 -49 5 -64 4 -67 -7z"/>
<path d="M9705 5446 c49 -64 153 -134 259 -171 49 -18 67 -30 90 -65 l29 -42
52 5 c44 4 155 48 155 61 0 3 -16 0 -36 -6 -93 -25 -257 37 -462 175 -95 64
-108 71 -87 43z"/>
<path d="M9507 5301 c-15 -18 -27 -36 -27 -41 0 -10 82 -90 130 -126 78 -59
210 -102 300 -97 14 0 36 2 50 2 37 2 4 21 -36 21 -40 0 -145 37 -222 79 -71
39 -148 117 -160 164 l-8 30 -27 -32z"/>
<path d="M6930 5260 c-41 -41 -55 -122 -55 -310 1 -192 13 -274 67 -452 36
-121 37 -143 7 -223 l-22 -59 -28 119 c-44 192 -103 345 -174 452 -39 58 -125
143 -167 164 -49 25 -74 24 -103 -5 -48 -49 -43 -188 15 -391 91 -315 225
-503 343 -481 20 4 49 18 65 31 l29 24 11 -132 c25 -273 11 -665 -33 -959 -8
-54 -15 -100 -15 -102 0 -3 -24 -12 -54 -20 -36 -11 -63 -26 -80 -47 -42 -50
-33 -98 37 -197 l31 -42 -20 -28 c-34 -45 -35 -59 -9 -90 37 -44 42 -78 16
-113 -24 -33 -22 -56 9 -84 18 -16 18 -19 3 -57 -15 -37 -15 -41 4 -66 11 -15
38 -39 60 -54 23 -16 45 -41 52 -60 25 -68 70 -155 94 -184 30 -36 95 -58 140
-49 57 12 94 51 139 142 26 54 58 102 85 128 46 44 50 59 31 111 -10 30 -9 37
17 74 24 34 27 45 17 58 -35 49 -37 62 -12 107 22 41 23 46 10 85 -13 40 -13
44 20 107 43 86 48 136 18 188 -17 29 -35 44 -68 56 -54 20 -52 15 -76 259
-25 265 -13 543 37 821 l21 117 57 -5 c45 -4 66 -1 98 15 210 107 420 733 273
812 -105 56 -260 -171 -389 -570 -16 -52 -35 -117 -42 -143 l-12 -48 -23 22
c-30 28 -75 104 -76 127 0 9 14 51 31 92 65 153 114 385 115 540 1 116 -13
153 -60 158 -26 3 -37 -3 -62 -33 -90 -110 -137 -490 -84 -679 l23 -78 -26
-34 c-15 -19 -37 -41 -50 -50 -22 -14 -27 -14 -53 2 -34 20 -94 113 -94 146 0
13 8 70 18 128 26 151 27 532 1 643 -17 72 -54 137 -78 137 -5 0 -18 -9 -29
-20z m63 -80 c30 -88 39 -201 34 -388 -5 -185 -24 -359 -38 -345 -12 12 -66
237 -78 326 -15 111 -14 272 4 362 23 121 48 135 78 45z m394 -137 c12 -46 6
-191 -11 -293 -20 -112 -69 -287 -98 -350 l-21 -45 -14 55 c-31 117 -15 381
32 535 33 106 95 161 112 98z m-826 -131 c137 -88 252 -310 314 -612 28 -135
27 -145 -30 -180 -50 -31 -92 -21 -147 35 -114 115 -241 462 -242 660 0 85 13
125 42 125 10 0 38 -13 63 -28z m1246 -20 c20 -12 33 -60 33 -117 0 -190 -163
-545 -289 -631 -38 -25 -98 -32 -131 -14 -18 10 -18 13 5 97 108 398 294 721
382 665z m-797 -580 c0 -5 14 -29 30 -54 57 -86 130 -95 185 -22 l26 34 40
-60 c23 -33 49 -66 59 -73 17 -12 17 -17 5 -72 -56 -246 -78 -626 -51 -910 8
-93 19 -185 22 -204 7 -33 6 -34 -17 -27 -13 4 -111 10 -216 13 -190 6 -193 6
-188 27 10 46 35 248 46 371 15 174 13 539 -4 699 l-14 129 28 63 c16 35 29
70 29 79 0 8 5 15 10 15 6 0 10 -4 10 -8z"/>
<path d="M12654 5191 c-77 -47 -115 -162 -80 -245 19 -45 52 -66 103 -66 134
0 210 238 101 314 -30 22 -86 20 -124 -3z"/>
<path d="M3930 4923 c-149 -12 -294 -107 -399 -261 -44 -65 -74 -128 -69 -142
2 -5 32 16 68 46 105 88 213 162 297 202 75 35 82 37 178 36 98 0 115 -4 219
-49 l38 -16 -23 33 c-33 46 -77 86 -121 109 -47 24 -142 45 -188 42z"/>
<path d="M3967 4609 c-116 -18 -222 -103 -282 -223 -19 -38 -35 -76 -35 -84 0
-8 14 13 31 47 39 77 118 160 187 195 28 14 56 26 61 26 5 0 0 -19 -11 -42
-27 -55 -29 -138 -5 -200 21 -55 88 -120 141 -138 128 -42 249 74 233 225 -3
28 -9 59 -13 70 -5 15 3 11 31 -15 l39 -35 -32 42 c-36 46 -119 105 -172 121
-53 16 -120 20 -173 11z"/>
<path d="M5027 3733 c-13 -3 -16 -10 -12 -21 17 -39 16 -51 -2 -60 -66 -34
-347 -84 -550 -98 -57 -3 -103 -10 -103 -14 0 -8 65 -33 130 -49 278 -68 529
-19 579 112 12 31 15 96 5 121 -6 16 -14 18 -47 9z"/>
<path d="M3530 3175 c41 -49 160 -156 242 -216 212 -156 420 -235 644 -246 79
-4 132 -2 156 6 38 13 92 60 113 100 l13 26 -157 1 c-181 2 -296 22 -486 85
-130 44 -358 150 -470 219 -38 23 -63 35 -55 25z"/>
<path d="M4763 2393 c4 -38 7 -101 7 -140 l0 -73 35 0 c19 0 35 4 35 10 0 5 7
6 17 3 11 -4 14 -3 9 5 -4 6 7 4 23 -6 41 -23 41 -52 1 -52 -16 0 -30 5 -30
10 0 6 5 10 10 10 6 0 10 5 10 10 0 6 -9 10 -20 10 -13 0 -20 -7 -20 -20 0
-17 -7 -20 -42 -20 -24 0 -59 4 -78 10 -20 5 -58 6 -90 1 -38 -6 -45 -9 -22
-10 46 -2 40 -21 -7 -21 -22 0 -41 -4 -43 -8 -1 -5 -47 -12 -101 -15 -72 -5
-96 -3 -91 5 4 6 3 8 -4 5 -5 -4 -18 -4 -29 0 -11 5 32 12 107 18 l125 11
-202 1 c-113 0 -203 -3 -203 -8 0 -5 -18 -9 -40 -9 -48 0 -54 19 -7 21 17 1 1
6 -38 10 -46 6 -71 6 -73 -1 -5 -13 -82 -13 -82 0 0 6 5 10 12 10 32 0 -11 15
-75 26 -39 7 -101 18 -137 25 -36 7 -75 13 -87 13 -13 1 -23 4 -23 9 0 14 -23
7 -40 -12 -16 -19 -17 -19 -34 10 -17 28 -36 39 -36 19 0 -5 -13 -10 -30 -10
-16 0 -30 -4 -30 -10 0 -5 -4 -10 -10 -10 -5 0 -10 8 -10 18 0 20 -60 42 -115
42 -19 0 -35 5 -35 10 0 6 -4 10 -9 10 -5 0 -13 -37 -17 -82 -4 -46 -10 -73
-12 -60 -4 27 -32 29 -32 2 0 -11 5 -20 11 -20 6 0 7 -5 2 -12 -4 -7 -7 -44
-6 -83 1 -68 0 -68 -7 -20 -7 46 -7 44 -5 -22 1 -40 -1 -75 -4 -79 -3 -3 -7
-38 -8 -77 -2 -40 -6 -85 -9 -102 -5 -23 -4 -27 6 -19 6 7 12 34 12 61 -1 27
3 55 8 63 8 13 16 -79 13 -148 -1 -9 7 -12 23 -9 22 4 33 -6 17 -16 -10 -5 12
1 32 9 8 3 15 1 15 -4 0 -6 -8 -12 -17 -14 -14 -3 -9 -8 16 -21 42 -21 47 -21
31 -2 -15 18 -9 19 25 3 14 -6 25 -19 25 -29 0 -16 34 -36 53 -31 4 1 7 -2 7
-7 0 -6 29 -7 70 -4 49 4 70 3 70 -6 0 -6 -9 -11 -20 -11 -11 0 -20 -7 -20
-15 0 -16 16 -20 24 -6 7 10 56 2 56 -9 0 -5 -9 -6 -20 -3 -41 11 -18 -16 27
-31 57 -20 64 -20 57 -2 -4 12 2 14 32 10 21 -3 42 -10 47 -17 7 -9 10 -9 14
1 6 14 43 16 43 2 0 -5 -6 -10 -12 -10 -9 0 -8 -4 2 -10 8 -5 24 -7 35 -3 18
5 18 4 3 -11 -17 -17 -48 -22 -48 -8 0 4 -17 8 -37 9 l-38 0 45 -14 c25 -8 55
-12 68 -10 17 3 22 1 18 -10 -5 -11 4 -13 42 -9 26 3 41 2 35 0 -23 -10 -14
-20 26 -34 28 -9 48 -10 68 -3 31 11 53 7 53 -9 0 -6 -12 -8 -26 -5 -38 7 -15
-8 31 -21 22 -6 65 -9 95 -7 30 2 43 1 28 -2 -38 -6 -35 -19 5 -26 17 -3 40
-8 50 -12 12 -5 17 -2 17 9 0 9 5 16 10 16 6 0 10 -8 8 -17 -3 -19 45 -35 139
-47 26 -4 60 -11 75 -17 15 -6 33 -9 40 -6 7 3 3 6 -9 6 -13 1 -23 5 -23 10 0
4 16 7 35 5 22 -1 34 2 32 9 -1 7 11 13 28 14 17 0 32 2 35 3 3 1 12 3 20 5 8
2 23 6 33 10 13 6 16 3 11 -9 -4 -11 -1 -16 10 -16 9 0 16 -7 16 -15 0 -9 9
-15 24 -15 13 0 31 -3 40 -6 14 -5 14 -8 1 -21 -8 -8 -18 -12 -22 -10 -5 3
-17 1 -28 -3 -14 -5 -6 -9 30 -14 31 -4 51 -2 53 4 4 12 42 13 42 1 0 -5 -6
-12 -12 -15 -7 -3 11 -4 41 -2 29 2 57 9 61 16 6 10 9 9 12 -1 4 -11 24 -13
81 -11 78 3 101 -9 55 -28 -21 -8 -20 -9 10 -9 17 -1 32 4 32 9 0 6 18 10 40
10 22 0 40 5 40 10 0 6 23 10 50 10 28 0 50 -4 50 -10 0 -5 -13 -10 -29 -10
-35 0 -49 -26 -18 -34 39 -10 53 -6 27 8 -22 13 -17 14 50 10 41 -3 81 -7 88
-9 16 -6 15 0 -4 20 -9 9 -14 19 -11 22 8 7 37 -22 38 -39 0 -7 4 -3 9 10 5
12 15 22 22 22 9 0 9 -3 -2 -11 -13 -9 -13 -10 0 -6 21 5 39 59 23 64 -22 8
-15 43 7 43 11 0 20 -4 20 -10 0 -5 -4 -10 -10 -10 -5 0 -10 -4 -10 -10 0 -5
12 -10 28 -10 26 -1 26 -1 8 -15 -11 -8 -16 -15 -10 -15 18 1 41 25 36 39 -3
10 2 12 24 8 37 -7 61 2 42 15 -8 6 1 8 27 4 22 -2 32 -2 23 0 -13 4 -18 16
-18 45 0 37 2 39 30 39 23 0 30 -4 30 -20 0 -11 -6 -20 -12 -20 -9 0 -10 -3
-2 -8 6 -4 13 -13 15 -19 3 -9 12 -7 34 7 28 18 28 20 8 20 -13 0 -23 5 -23
10 0 6 9 10 19 10 11 0 21 6 24 13 3 9 11 9 33 1 34 -12 55 -8 48 9 -4 11 57
37 86 37 17 0 11 -18 -7 -23 -10 -3 1 -3 25 -1 57 5 91 23 45 24 -18 0 -33 5
-33 10 0 6 -9 10 -20 10 -24 0 -25 6 -5 27 14 14 18 13 34 -6 19 -22 81 -30
81 -11 0 6 14 10 30 10 17 0 30 -4 30 -10 0 -6 64 -10 173 -10 121 0 177 -4
185 -12 18 -18 15 -26 -10 -30 -13 -2 8 -7 47 -12 48 -6 70 -5 73 3 4 13 82
15 82 2 0 -5 -12 -12 -27 -14 -16 -3 14 -4 66 -4 65 2 96 6 99 15 5 17 22 15
22 -3 0 -10 10 -15 27 -15 l27 0 -34 25 c-19 14 -36 21 -38 15 -2 -5 -8 -10
-14 -10 -6 0 -8 6 -5 14 6 15 -67 61 -83 51 -5 -3 -10 -1 -10 6 0 7 -8 2 -19
-9 -25 -30 -91 -31 -91 -2 0 17 -7 20 -39 20 -22 0 -42 -5 -44 -12 -4 -10 -8
-9 -17 2 -9 11 -13 12 -17 3 -3 -8 -24 -13 -54 -13 l-49 0 0 45 c0 45 19 66
21 23 0 -22 1 -22 8 -3 12 28 5 35 -37 35 -28 0 -33 -3 -22 -10 11 -7 7 -10
-17 -10 -17 0 -34 -4 -37 -9 -7 -10 -56 9 -56 22 0 4 12 7 26 7 14 0 23 4 19
10 -3 6 -19 10 -36 10 -16 0 -29 -4 -29 -10 0 -5 -5 -10 -11 -10 -6 0 -9 6 -6
14 4 11 -5 15 -38 18 -24 1 -41 0 -38 -4 2 -5 11 -8 19 -8 9 0 14 -11 14 -30
0 -16 -4 -30 -10 -30 -5 0 -10 7 -10 16 0 20 -53 69 -58 54 -5 -13 -69 -13
-77 -1 -3 6 10 7 32 4 22 -3 35 -2 30 3 -5 5 -18 9 -30 10 -12 1 -58 6 -102
12 -174 23 -215 25 -215 8 0 -12 -8 -15 -32 -12 -18 3 -36 5 -40 5 -5 1 -8 6
-8 11 0 6 15 11 33 11 17 1 5 5 -28 9 -38 4 -63 2 -67 -4 -6 -8 -11 -7 -16 1
-4 7 -21 14 -37 17 -17 2 -24 1 -17 -1 6 -2 12 -13 12 -24 0 -12 7 -19 20 -19
11 0 20 -4 20 -10 0 -6 -33 -10 -80 -10 l-80 0 0 30 c0 22 5 30 18 31 14 0 14
2 -3 9 -31 13 -45 11 -52 -7 -7 -19 -28 -43 -37 -43 -3 0 -6 10 -6 23 0 27
-45 50 -93 46 -18 -2 -39 1 -46 6 -11 6 -13 4 -8 -9 4 -10 3 -15 -3 -11 -6 3
-10 19 -10 34 0 35 -9 44 -28 28 -13 -10 -14 -8 -9 22 4 18 8 39 8 45 1 6 5
-2 10 -19 8 -29 8 -29 4 5 -3 19 -9 76 -15 125 -13 106 -15 115 -32 115 -10 0
-10 -2 1 -9 10 -6 10 -10 1 -16 -21 -13 -25 6 -8 36 10 17 13 27 7 24 -6 -4
-7 3 -3 19 3 14 1 64 -6 111 -10 73 -15 85 -31 85 -10 0 -19 -4 -19 -10 0 -5
-9 -10 -20 -10 -11 0 -20 5 -20 10 0 6 9 10 21 10 14 0 19 5 16 14 -4 10 0 12
14 9 16 -5 19 0 19 36 0 58 -14 79 -66 102 -46 19 -223 59 -265 59 -21 0 -22
-2 -16 -67z m356 -973 l2 -80 -59 0 c-54 0 -59 2 -69 28 l-11 27 -1 -27 c-1
-28 -21 -41 -21 -14 0 8 -3 23 -6 33 -5 15 -4 15 5 3 7 -10 11 -11 11 -2 0 6
7 12 16 12 8 0 12 5 9 10 -4 6 6 10 22 11 15 0 22 3 16 6 -14 5 45 60 59 56 4
-2 8 2 8 7 0 6 4 10 8 10 5 0 9 -36 11 -80z"/>
<path d="M7066 1201 c-14 -22 381 -33 539 -16 l90 10 -120 6 c-189 10 -503 10
-509 0z"/>
</g>
</svg>
